<svg width="17" height="16" viewBox="0 0 17 16" fill="none" xmlns="http://www.w3.org/2000/svg">
<path d="M13.4434 3.54208C13.7907 4.30616 14.876 4.30616 15.2233 3.54208C15.3211 3.3269 15.4936 3.15445 15.7088 3.05664C16.4729 2.70933 16.4729 1.62402 15.7088 1.27671C15.4936 1.1789 15.3211 1.00645 15.2233 0.791272C14.876 0.0271896 13.7907 0.0271896 13.4434 0.791272C13.3456 1.00645 13.1731 1.1789 12.958 1.27671C12.1939 1.62402 12.1939 2.70933 12.958 3.05664C13.1731 3.15445 13.3456 3.32691 13.4434 3.54208Z" fill="white"/>
<path d="M15.2233 12.4579C14.876 11.6939 13.7907 11.6939 13.4434 12.4579C13.3456 12.6731 13.1731 12.8456 12.958 12.9434C12.1939 13.2907 12.1939 14.376 12.958 14.7233C13.1731 14.8211 13.3456 14.9936 13.4434 15.2087C13.7907 15.9728 14.876 15.9728 15.2233 15.2087C15.3211 14.9936 15.4936 14.8211 15.7088 14.7233C16.4729 14.376 16.4729 13.2907 15.7088 12.9434C15.4936 12.8456 15.3211 12.6731 15.2233 12.4579Z" fill="white"/>
<path d="M8.42476 6.07185C8.20465 5.9718 8.02825 5.7954 7.9282 5.57529L6.91041 3.33615C6.55514 2.55455 5.44494 2.55455 5.08967 3.33615L4.07188 5.57529C3.97183 5.7954 3.79543 5.9718 3.57532 6.07185L1.33618 7.08964C0.554584 7.44491 0.554584 8.55511 1.33618 8.91038L3.57532 9.92817C3.79543 10.0282 3.97183 10.2046 4.07188 10.4247L5.08967 12.6639C5.44494 13.4455 6.55514 13.4455 6.91041 12.6639L7.9282 10.4247C8.02825 10.2046 8.20465 10.0282 8.42476 9.92817L10.6639 8.91038C11.4455 8.5551 11.4455 7.44491 10.6639 7.08964L8.42476 6.07185ZM7.08963 8.70485C6.91905 8.78232 6.78235 8.91902 6.70488 9.0896C6.42996 9.69497 5.57012 9.69497 5.2952 9.0896C5.21773 8.91902 5.08103 8.78232 4.91045 8.70485C4.30508 8.42993 4.30508 7.57009 4.91045 7.29517C5.08103 7.2177 5.21773 7.081 5.2952 6.91042C5.57012 6.30505 6.42996 6.30505 6.70488 6.91042C6.78235 7.081 6.91905 7.2177 7.08963 7.29517C7.695 7.57009 7.695 8.42993 7.08963 8.70485Z" fill="white"/>
</svg>
